<?xml version="1.0" encoding="utf-8"?>
<!-- Generator: Adobe Illustrator 26.3.1, SVG Export Plug-In . SVG Version: 6.00 Build 0)  -->
<svg version="1.1" id="Capa_1" xmlns="http://www.w3.org/2000/svg" xmlns:xlink="http://www.w3.org/1999/xlink" x="0px" y="0px"
	 viewBox="0 0 512 512" style="enable-background:new 0 0 512 512;" xml:space="preserve">
<style type="text/css">
	.st0{fill:#E8E6E6;}
</style>
<polygon class="st0" points="0.7,216.6 87.2,216.6 87.2,166.9 44,166.9 "/>
<rect x="136" y="71.1" class="st0" width="244.2" height="49.7"/>
<rect x="136" y="71.2" class="st0" width="49.7" height="145.5"/>
<rect x="87.2" y="166.9" class="st0" width="225.1" height="49.7"/>
<rect x="233.3" y="191.9" class="st0" width="49.7" height="266.1"/>
<rect x="330.5" y="97.3" class="st0" width="49.7" height="266.1"/>
<rect x="355.3" y="166.9" class="st0" width="71" height="49.7"/>
<rect x="136" y="234.8" class="st0" width="49.7" height="128.5"/>
<polygon class="st0" points="511.3,216.6 424.8,216.6 424.8,166.9 468,166.9 "/>
<polygon class="st0" points="185.8,456.9 185.8,362.4 136,362.4 136,409.6 "/>
<polygon class="st0" points="380.2,456.9 380.2,362.4 330.5,362.4 330.5,409.6 "/>
</svg>
