<?xml version="1.0" encoding="UTF-8"?><svg id="katman_3" xmlns="http://www.w3.org/2000/svg" viewBox="0 0 1080 1080"><defs><style>.cls-1{fill:#1c1c1a;}</style></defs><polygon class="cls-1" points="121.63 471.96 263.25 471.96 263.25 390.55 192.44 390.55 121.63 471.96"/><rect class="cls-1" x="343.2" y="233.7" width="399.76" height="81.4"/><rect class="cls-1" x="264.77" y="312.12" width="238.26" height="81.4" transform="translate(31.08 736.73) rotate(-90)"/><rect class="cls-1" x="263.25" y="390.55" width="368.5" height="81.4"/><rect class="cls-1" x="325.21" y="608.42" width="435.73" height="81.4" transform="translate(-106.04 1192.19) rotate(-90)"/><rect class="cls-1" x="484.39" y="453.66" width="435.73" height="81.4" transform="translate(207.89 1196.61) rotate(-90)"/><rect class="cls-1" x="702.25" y="390.55" width="116.29" height="81.4"/><rect class="cls-1" x="278.74" y="566.36" width="210.33" height="81.4" transform="translate(-223.16 990.96) rotate(-90)"/><polygon class="cls-1" points="957.62 471.96 816 471.96 816 390.55 886.81 390.55 957.62 471.96"/><polygon class="cls-1" points="424.6 866.98 424.6 712.23 343.2 712.23 343.2 789.6 424.6 866.98"/><polygon class="cls-1" points="742.95 866.98 742.95 712.23 661.55 712.23 661.55 789.6 742.95 866.98"/></svg>